<?xml version="1.0" encoding="utf-8"?>
<!-- Generator: Adobe Illustrator 16.0.0, SVG Export Plug-In . SVG Version: 6.00 Build 0)  -->
<!DOCTYPE svg PUBLIC "-//W3C//DTD SVG 1.1//EN" "http://www.w3.org/Graphics/SVG/1.1/DTD/svg11.dtd">
<svg version="1.1" xmlns="http://www.w3.org/2000/svg" xmlns:xlink="http://www.w3.org/1999/xlink" x="0px" y="0px" width="16px"
	 height="16px" viewBox="0 0 16 16" enable-background="new 0 0 16 16" xml:space="preserve">
<g id="Layer_1" display="none">
	<rect x="-1062" y="-207" display="inline" opacity="0.3" fill="#FEFCE8" width="1593" height="1917"/>
	<circle display="inline" fill="#2D5EA9" cx="-412.373" cy="1958.475" r="124.195"/>
	<circle display="inline" fill="#2D5EA9" cx="-149.5" cy="1971.475" r="124.195"/>
</g>
<g id="sharp" display="none">
	<g id="rectangle">
		
			<rect x="-585" y="45" display="inline" fill="none" stroke="#000000" stroke-width="7" stroke-miterlimit="10" width="36" height="36"/>
		
			<rect x="-459" y="171" display="inline" fill="none" stroke="#000000" stroke-width="7" stroke-miterlimit="10" width="36" height="36"/>
		
			<rect x="-567" y="63" display="inline" fill="none" stroke="#000000" stroke-width="7" stroke-miterlimit="10" width="126" height="126"/>
	</g>
	<g id="polygon">
		
			<rect x="-378" y="45" display="inline" fill="none" stroke="#000000" stroke-width="7" stroke-miterlimit="10" width="36" height="36"/>
		
			<rect x="-288" y="81" display="inline" fill="none" stroke="#000000" stroke-width="7" stroke-miterlimit="10" width="36" height="36"/>
		
			<rect x="-252" y="171" display="inline" fill="none" stroke="#000000" stroke-width="7" stroke-miterlimit="10" width="36" height="36"/>
		<polygon display="inline" fill="none" stroke="#000000" stroke-width="7" stroke-miterlimit="10" points="-270,99 -360,63 
			-360,189 -234,189 		"/>
		
			<rect x="-378" y="171" display="inline" fill="none" stroke="#000000" stroke-width="7" stroke-miterlimit="10" width="36" height="36"/>
	</g>
	<g id="line">
		
			<rect x="-189" y="36" display="inline" fill="none" stroke="#000000" stroke-width="7" stroke-miterlimit="10" width="36" height="36"/>
		
			<rect x="-63" y="162" display="inline" fill="none" stroke="#000000" stroke-width="7" stroke-miterlimit="10" width="36" height="36"/>
		
			<line display="inline" fill="none" stroke="#000000" stroke-width="7" stroke-miterlimit="10" x1="-171" y1="54" x2="-45" y2="180"/>
	</g>
</g>
<g id="Layer_6" display="none">
	
		<rect x="-567" y="306" display="inline" fill="none" stroke="#000000" stroke-width="7" stroke-miterlimit="10" width="126" height="126"/>
	<polygon display="inline" fill="none" stroke="#000000" stroke-width="7" stroke-miterlimit="10" points="-270,342 -360,306 
		-360,432 -234,432 	"/>
	
		<line display="inline" fill="none" stroke="#000000" stroke-width="7" stroke-miterlimit="10" x1="-171" y1="306" x2="-45" y2="432"/>
</g>
<g id="Layer_7" display="none">
	
		<rect x="-567" y="504" display="inline" fill="none" stroke="#000000" stroke-width="7" stroke-miterlimit="10" width="126" height="126"/>
	<polygon display="inline" fill="none" stroke="#000000" stroke-width="7" stroke-miterlimit="10" points="-234,504 -360,504 
		-360,630 -234,630 -297,567 	"/>
	
		<line display="inline" fill="none" stroke="#000000" stroke-width="7" stroke-miterlimit="10" x1="-171" y1="504" x2="-45" y2="630"/>
</g>
<g id="bg_blue" display="none">
	<rect x="-747" y="657" display="inline" fill="#2D5EA9" width="882" height="216"/>
</g>
<g id="Layer_8" display="none">
	
		<rect x="-567" y="693" display="inline" fill="none" stroke="#000000" stroke-width="7" stroke-miterlimit="10" width="126" height="126"/>
	<polygon display="inline" fill="none" stroke="#000000" stroke-width="7" stroke-miterlimit="10" points="-234,693 -360,693 
		-360,819 -234,819 -297,756 	"/>
	
		<line display="inline" fill="none" stroke="#000000" stroke-width="7" stroke-miterlimit="10" x1="-171" y1="693" x2="-45" y2="819"/>
	<circle display="inline" fill="none" stroke="#FEFCE8" stroke-width="5" stroke-miterlimit="10" cx="-567" cy="693" r="18"/>
	<circle display="inline" fill="none" stroke="#FEFCE8" stroke-width="5" stroke-miterlimit="10" cx="-441" cy="819" r="18"/>
	<circle display="inline" fill="none" stroke="#FEFCE8" stroke-width="5" stroke-miterlimit="10" cx="-360" cy="693" r="18"/>
	<circle display="inline" fill="none" stroke="#FEFCE8" stroke-width="5" stroke-miterlimit="10" cx="-234" cy="693" r="18"/>
	<circle display="inline" fill="none" stroke="#FEFCE8" stroke-width="5" stroke-miterlimit="10" cx="-297" cy="756" r="18"/>
	<circle display="inline" fill="none" stroke="#FEFCE8" stroke-width="5" stroke-miterlimit="10" cx="-234" cy="819" r="18"/>
	<circle display="inline" fill="none" stroke="#FEFCE8" stroke-width="5" stroke-miterlimit="10" cx="-360" cy="819" r="18"/>
	<circle display="inline" fill="none" stroke="#FEFCE8" stroke-width="5" stroke-miterlimit="10" cx="-171" cy="693" r="18"/>
	<circle display="inline" fill="none" stroke="#FEFCE8" stroke-width="5" stroke-miterlimit="10" cx="-45" cy="819" r="18"/>
</g>
<g id="Layer_10" display="none">
	
		<rect x="-567" y="936" display="inline" fill="none" stroke="#000000" stroke-width="14" stroke-miterlimit="10" width="126" height="126"/>
	<polygon display="inline" fill="none" stroke="#000000" stroke-width="14" stroke-miterlimit="10" points="-234,936 -360,936 
		-360,1062 -234,1062 -297,999 	"/>
	
		<line display="inline" fill="none" stroke="#000000" stroke-width="16" stroke-linecap="square" stroke-miterlimit="10" x1="-171" y1="936" x2="-45" y2="1062"/>
	<circle display="inline" fill="none" stroke="#FEFCE8" stroke-width="5" stroke-miterlimit="10" cx="-567" cy="936" r="18"/>
	<circle display="inline" fill="none" stroke="#FEFCE8" stroke-width="5" stroke-miterlimit="10" cx="-441" cy="1062" r="18"/>
	<circle display="inline" fill="none" stroke="#FEFCE8" stroke-width="5" stroke-miterlimit="10" cx="-360" cy="936" r="18"/>
	<circle display="inline" fill="none" stroke="#FEFCE8" stroke-width="5" stroke-miterlimit="10" cx="-234" cy="936" r="18"/>
	<circle display="inline" fill="none" stroke="#FEFCE8" stroke-width="5" stroke-miterlimit="10" cx="-297" cy="999" r="18"/>
	<circle display="inline" fill="none" stroke="#FEFCE8" stroke-width="5" stroke-miterlimit="10" cx="-234" cy="1062" r="18"/>
	<circle display="inline" fill="none" stroke="#FEFCE8" stroke-width="5" stroke-miterlimit="10" cx="-360" cy="1062" r="18"/>
	<circle display="inline" fill="none" stroke="#FEFCE8" stroke-width="5" stroke-miterlimit="10" cx="-171" cy="936" r="18"/>
	<circle display="inline" fill="none" stroke="#FEFCE8" stroke-width="5" stroke-miterlimit="10" cx="-45" cy="1062" r="18"/>
</g>
<g id="Layer_11" display="none">
	<g display="inline">
		<rect x="-567" y="1152" fill="none" stroke="#000000" stroke-width="14" stroke-miterlimit="10" width="126" height="126"/>
		<polygon fill="none" stroke="#000000" stroke-width="14" stroke-miterlimit="10" points="-234,1152 -360,1152 -360,1278 
			-234,1278 -297,1215 		"/>
		
			<line fill="none" stroke="#000000" stroke-width="16" stroke-linecap="square" stroke-miterlimit="10" x1="-171" y1="1152" x2="-45" y2="1278"/>
	</g>
	<g display="inline">
		<circle fill="#FEFCE8" cx="-567" cy="1152" r="18"/>
		<circle fill="#FEFCE8" cx="-441" cy="1278" r="18"/>
		<circle fill="#FEFCE8" cx="-360" cy="1152" r="18"/>
		<circle fill="#FEFCE8" cx="-234" cy="1152" r="18"/>
		<circle fill="#FEFCE8" cx="-297" cy="1215" r="18"/>
		<circle fill="#FEFCE8" cx="-234" cy="1278" r="18"/>
		<circle fill="#FEFCE8" cx="-360" cy="1278" r="18"/>
		<circle fill="#FEFCE8" cx="-171" cy="1152" r="18"/>
		<circle fill="#FEFCE8" cx="-45" cy="1278" r="18"/>
	</g>
</g>
<g id="Layer_12" display="none">
	<g display="inline">
		<path fill="none" d="M-306.5,1494c0,8.547,6.953,15.5,15.5,15.5c1.685,0,3.303-0.279,4.822-0.778L-300.899,1494l14.722-14.722
			c-1.52-0.499-3.138-0.778-4.822-0.778C-299.547,1478.5-306.5,1485.453-306.5,1494z"/>
		<path fill="none" d="M-334.757,1438c-2.071,5.674-6.569,10.172-12.243,12.243v87.514c5.673,2.071,10.172,6.569,12.243,12.243
			h87.515c0.206-0.564,0.434-1.116,0.687-1.656l-35.787-35.787c-2.634,1.233-5.561,1.943-8.657,1.943
			c-11.304,0-20.5-9.196-20.5-20.5s9.196-20.5,20.5-20.5c3.096,0,6.022,0.71,8.657,1.943l35.787-35.787
			c-0.253-0.54-0.481-1.092-0.687-1.656H-334.757z"/>
		<path fill="none" d="M-347,1543.189V1550h6.811C-341.68,1547.07-344.07,1544.68-347,1543.189z"/>
		<path fill="none" d="M-276.278,1498.822c0.5-1.52,0.778-3.138,0.778-4.822s-0.279-3.303-0.778-4.822l-4.822,4.822
			L-276.278,1498.822z"/>
		<path fill="none" d="M-212.5,1557c0-8.547-6.953-15.5-15.5-15.5c-1.685,0-3.303,0.279-4.822,0.778l19.544,19.544
			C-212.779,1560.303-212.5,1558.685-212.5,1557z"/>
		<path fill="none" d="M-228,1415.5c-6.027,0-11.248,3.465-13.811,8.5h27.622C-216.752,1418.965-221.973,1415.5-228,1415.5z"/>
		<path fill="none" d="M-228,1572.5c6.027,0,11.248-3.465,13.811-8.5h-27.622C-239.248,1569.035-234.027,1572.5-228,1572.5z"/>
		<path fill="none" d="M-212.5,1431c0-1.685-0.279-3.303-0.778-4.822l-19.544,19.544c1.52,0.499,3.138,0.778,4.822,0.778
			C-219.453,1446.5-212.5,1439.547-212.5,1431z"/>
		<path fill="none" d="M-547.189,1438H-554v6.811C-551.07,1443.32-548.68,1440.93-547.189,1438z"/>
		<path fill="none" d="M-442,1537.757V1438h-99.757c-2.071,5.674-6.569,10.172-12.243,12.243V1550h99.757
			C-452.172,1544.326-447.673,1539.828-442,1537.757z"/>
		<path fill="none" d="M-547.189,1424c-2.563-5.035-7.784-8.5-13.811-8.5c-8.547,0-15.5,6.953-15.5,15.5
			c0,6.026,3.465,11.248,8.5,13.811V1424H-547.189z"/>
		<path fill="none" d="M-340.189,1438H-347v6.811C-344.07,1443.32-341.68,1440.93-340.189,1438z"/>
		<path fill="none" d="M-361,1543.189c-5.035,2.563-8.5,7.784-8.5,13.811c0,8.547,6.953,15.5,15.5,15.5
			c6.027,0,11.248-3.465,13.811-8.5H-361V1543.189z"/>
		<path fill="none" d="M-340.189,1424c-2.563-5.035-7.784-8.5-13.811-8.5c-8.547,0-15.5,6.953-15.5,15.5
			c0,6.026,3.465,11.248,8.5,13.811V1424H-340.189z"/>
		<path fill="none" d="M-448.811,1564c2.563,5.035,7.784,8.5,13.811,8.5c8.547,0,15.5-6.953,15.5-15.5
			c0-6.026-3.465-11.248-8.5-13.811V1564H-448.811z"/>
		<path fill="none" d="M-442,1543.189c-2.93,1.49-5.32,3.881-6.811,6.811H-442V1543.189z"/>
		<path fill="none" d="M-39,1568.313l-15.031-15.03c-0.295,1.193-0.469,2.434-0.469,3.717c0,8.547,6.953,15.5,15.5,15.5
			s15.5-6.953,15.5-15.5s-6.953-15.5-15.5-15.5c-1.283,0-2.524,0.174-3.717,0.47l15.031,15.03L-39,1568.313z"/>
		<path fill="none" d="M-165,1415.5c-8.547,0-15.5,6.953-15.5,15.5s6.953,15.5,15.5,15.5c1.283,0,2.524-0.174,3.717-0.47
			l-15.031-15.03l11.313-11.313l15.031,15.03c0.295-1.193,0.469-2.434,0.469-3.717C-149.5,1422.453-156.453,1415.5-165,1415.5z"/>
		<path d="M-442,1543.189V1550h-6.811c-1.072,2.105-1.689,4.479-1.689,7s0.617,4.895,1.689,7H-428v-20.811
			c-2.105-1.072-4.48-1.689-7-1.689S-439.895,1542.117-442,1543.189z"/>
		<path d="M-454.243,1550H-554v-99.757c-2.188,0.799-4.539,1.257-7,1.257s-4.812-0.458-7-1.257V1564h113.757
			c-0.799-2.188-1.257-4.539-1.257-7S-455.042,1552.188-454.243,1550z"/>
		<path d="M-541.757,1438H-442v99.757c2.188-0.799,4.539-1.257,7-1.257s4.812,0.458,7,1.257V1424h-113.757
			c0.799,2.188,1.257,4.539,1.257,7S-540.958,1435.812-541.757,1438z"/>
		<path d="M-547.189,1438c1.072-2.105,1.689-4.479,1.689-7s-0.617-4.895-1.689-7H-568v20.811c2.105,1.072,4.48,1.689,7,1.689
			s4.895-0.617,7-1.689V1438H-547.189z"/>
		<path d="M-214.189,1424h-27.622c-1.072,2.105-1.689,4.479-1.689,7c0,6.862,4.487,12.688,10.678,14.722l19.544-19.544
			C-213.526,1425.424-213.833,1424.698-214.189,1424z"/>
		<path d="M-246.556,1439.656l-35.787,35.787c4.349,2.038,7.862,5.551,9.899,9.9l35.787-35.787
			C-241.006,1447.519-244.519,1444.006-246.556,1439.656z"/>
		<path d="M-347,1543.189c-2.105-1.072-4.48-1.689-7-1.689s-4.895,0.617-7,1.689V1564h20.811c1.072-2.105,1.689-4.479,1.689-7
			s-0.617-4.895-1.689-7H-347V1543.189z"/>
		<path d="M-334.757,1438h87.515c-0.799-2.188-1.257-4.539-1.257-7s0.458-4.812,1.257-7h-87.515c0.799,2.188,1.257,4.539,1.257,7
			S-333.958,1435.812-334.757,1438z"/>
		<path d="M-286.178,1508.722c4.671-1.534,8.365-5.228,9.899-9.899l-4.822-4.822l4.822-4.822c-1.534-4.672-5.228-8.365-9.899-9.899
			L-300.899,1494L-286.178,1508.722z"/>
		<path d="M-340.189,1438c1.072-2.105,1.689-4.479,1.689-7s-0.617-4.895-1.689-7H-361v20.811c2.105,1.072,4.48,1.689,7,1.689
			s4.895-0.617,7-1.689V1438H-340.189z"/>
		<path d="M-282.343,1512.557l35.787,35.787c2.038-4.35,5.55-7.862,9.899-9.9l-35.787-35.787
			C-274.481,1507.006-277.994,1510.519-282.343,1512.557z"/>
		<path d="M-213.278,1561.822l-19.544-19.544c-6.191,2.033-10.678,7.859-10.678,14.722c0,2.521,0.617,4.895,1.689,7h27.622
			C-213.833,1563.302-213.526,1562.576-213.278,1561.822z"/>
		<path d="M-247.243,1550h-87.515c0.799,2.188,1.257,4.539,1.257,7s-0.458,4.812-1.257,7h87.515c-0.799-2.188-1.257-4.539-1.257-7
			S-248.042,1552.188-247.243,1550z"/>
		<path d="M-347,1537.757v-87.514c-2.188,0.799-4.539,1.257-7,1.257s-4.812-0.458-7-1.257v87.514c2.188-0.799,4.539-1.257,7-1.257
			S-349.188,1536.958-347,1537.757z"/>
		<path d="M-46.68,1538.007l-99.326-99.327c-2.083,5.133-6.182,9.23-11.313,11.313l99.326,99.327
			C-55.911,1544.188-51.812,1540.09-46.68,1538.007z"/>
		<path d="M-54.031,1553.283l15.031,15.03L-27.687,1557l-15.031-15.03C-48.278,1543.346-52.654,1547.722-54.031,1553.283z"/>
		<path d="M-176.313,1431l15.031,15.03c5.561-1.376,9.937-5.752,11.313-11.313l-15.031-15.03L-176.313,1431z"/>
		<path fill="none" stroke="#010202" stroke-width="3" stroke-miterlimit="10" d="M-541.757,1438h-5.432
			c-1.491,2.93-3.881,5.32-6.811,6.811v5.433C-548.327,1448.172-543.828,1443.674-541.757,1438z"/>
		<path fill="none" stroke="#010202" stroke-width="3" stroke-miterlimit="10" d="M-576.5,1431c0-8.547,6.953-15.5,15.5-15.5
			c6.027,0,11.248,3.465,13.811,8.5h5.432c-2.87-7.861-10.4-13.5-19.243-13.5c-11.304,0-20.5,9.196-20.5,20.5
			c0,8.843,5.638,16.373,13.5,19.243v-5.433C-573.035,1442.248-576.5,1437.026-576.5,1431z"/>
		<path fill="none" stroke="#010202" stroke-width="3" stroke-miterlimit="10" d="M-428,1537.757v5.433
			c5.035,2.563,8.5,7.784,8.5,13.811c0,8.547-6.953,15.5-15.5,15.5c-6.027,0-11.248-3.465-13.811-8.5h-5.432
			c2.87,7.861,10.4,13.5,19.243,13.5c11.304,0,20.5-9.196,20.5-20.5C-414.5,1548.157-420.138,1540.627-428,1537.757z"/>
		<path fill="none" stroke="#010202" stroke-width="3" stroke-miterlimit="10" d="M-442,1543.189v-5.433
			c-5.673,2.071-10.172,6.569-12.243,12.243h5.432C-447.32,1547.07-444.93,1544.68-442,1543.189z"/>
		<path fill="none" stroke="#010202" stroke-width="3" stroke-miterlimit="10" d="M-334.757,1438h-5.432
			c-1.491,2.93-3.881,5.32-6.811,6.811v5.433C-341.327,1448.172-336.828,1443.674-334.757,1438z"/>
		<path fill="none" stroke="#010202" stroke-width="3" stroke-miterlimit="10" d="M-369.5,1431c0-8.547,6.953-15.5,15.5-15.5
			c6.027,0,11.248,3.465,13.811,8.5h5.432c-2.87-7.861-10.4-13.5-19.243-13.5c-11.304,0-20.5,9.196-20.5,20.5
			c0,8.843,5.638,16.373,13.5,19.243v-5.433C-366.035,1442.248-369.5,1437.026-369.5,1431z"/>
		<path fill="none" stroke="#010202" stroke-width="3" stroke-miterlimit="10" d="M-247.243,1438
			c0.206,0.564,0.434,1.116,0.687,1.656l1.657-1.656H-247.243z"/>
		<path fill="none" stroke="#010202" stroke-width="3" stroke-miterlimit="10" d="M-228,1415.5c6.027,0,11.248,3.465,13.811,8.5
			h3.088l-2.178,2.178c0.5,1.52,0.778,3.138,0.778,4.822c0,8.547-6.953,15.5-15.5,15.5c-1.685,0-3.303-0.279-4.822-0.778
			l-3.834,3.835c2.634,1.233,5.561,1.943,8.657,1.943c11.304,0,20.5-9.196,20.5-20.5s-9.196-20.5-20.5-20.5
			c-8.843,0-16.373,5.639-19.243,13.5h5.432C-239.248,1418.965-234.027,1415.5-228,1415.5z"/>
		<path d="M-211.101,1424h-3.088c0.355,0.698,0.663,1.424,0.911,2.178L-211.101,1424z"/>
		<path fill="none" stroke="#010202" stroke-width="3" stroke-miterlimit="10" d="M-275.5,1494c0,1.685-0.279,3.303-0.778,4.822
			l3.834,3.834c1.234-2.634,1.944-5.561,1.944-8.656s-0.71-6.022-1.944-8.656l-3.834,3.834
			C-275.779,1490.697-275.5,1492.315-275.5,1494z"/>
		<path fill="none" stroke="#010202" stroke-width="3" stroke-miterlimit="10" d="M-311.5,1494c0,11.304,9.196,20.5,20.5,20.5
			c3.096,0,6.022-0.71,8.657-1.943l-3.834-3.835c-1.52,0.499-3.138,0.778-4.822,0.778c-8.547,0-15.5-6.953-15.5-15.5
			s6.953-15.5,15.5-15.5c1.685,0,3.303,0.279,4.822,0.778l3.834-3.835c-2.634-1.233-5.561-1.943-8.657-1.943
			C-302.304,1473.5-311.5,1482.696-311.5,1494z"/>
		<path fill="none" stroke="#010202" stroke-width="3" stroke-miterlimit="10" d="M-244.899,1550l-1.657-1.656
			c-0.253,0.54-0.481,1.092-0.687,1.656H-244.899z"/>
		<path fill="none" stroke="#010202" stroke-width="3" stroke-miterlimit="10" d="M-228,1541.5c8.547,0,15.5,6.953,15.5,15.5
			c0,1.685-0.279,3.303-0.778,4.822l2.178,2.178h-3.088c-2.563,5.035-7.784,8.5-13.811,8.5s-11.248-3.465-13.811-8.5h-5.432
			c2.87,7.861,10.4,13.5,19.243,13.5c11.304,0,20.5-9.196,20.5-20.5s-9.196-20.5-20.5-20.5c-3.096,0-6.022,0.71-8.657,1.943
			l3.834,3.835C-231.303,1541.779-229.685,1541.5-228,1541.5z"/>
		<path d="M-211.101,1564l-2.178-2.178c-0.248,0.754-0.555,1.479-0.911,2.178H-211.101z"/>
		<path fill="none" stroke="#010202" stroke-width="3" stroke-miterlimit="10" d="M-347,1537.757v5.433
			c2.93,1.49,5.32,3.881,6.811,6.811h5.432C-336.828,1544.326-341.327,1539.828-347,1537.757z"/>
		<path fill="none" stroke="#010202" stroke-width="3" stroke-miterlimit="10" d="M-354,1572.5c-8.547,0-15.5-6.953-15.5-15.5
			c0-6.026,3.465-11.248,8.5-13.811v-5.433c-7.862,2.87-13.5,10.4-13.5,19.243c0,11.304,9.196,20.5,20.5,20.5
			c8.843,0,16.373-5.639,19.243-13.5h-5.432C-342.752,1569.035-347.973,1572.5-354,1572.5z"/>
		<path fill="none" stroke="#010202" stroke-width="3" stroke-miterlimit="10" d="M-165,1446.5c-8.547,0-15.5-6.953-15.5-15.5
			s6.953-15.5,15.5-15.5s15.5,6.953,15.5,15.5c0,1.283-0.174,2.523-0.469,3.717l3.963,3.963c0.963-2.374,1.506-4.963,1.506-7.68
			c0-11.304-9.196-20.5-20.5-20.5s-20.5,9.196-20.5,20.5s9.196,20.5,20.5,20.5c2.716,0,5.305-0.543,7.68-1.507l-3.963-3.963
			C-162.476,1446.326-163.717,1446.5-165,1446.5z"/>
		<path fill="none" stroke="#010202" stroke-width="3" stroke-miterlimit="10" d="M-39,1536.5c-2.716,0-5.305,0.543-7.68,1.507
			l3.963,3.963c1.193-0.296,2.434-0.47,3.717-0.47c8.547,0,15.5,6.953,15.5,15.5s-6.953,15.5-15.5,15.5s-15.5-6.953-15.5-15.5
			c0-1.283,0.174-2.523,0.469-3.717l-3.963-3.963c-0.963,2.374-1.506,4.963-1.506,7.68c0,11.304,9.196,20.5,20.5,20.5
			s20.5-9.196,20.5-20.5S-27.696,1536.5-39,1536.5z"/>
	</g>
</g>
<g id="Layer_13" display="none">
	<g display="inline">
		<rect x="-558" y="1656" fill="none" stroke="#000000" stroke-width="14" stroke-miterlimit="10" width="126" height="126"/>
		<polygon fill="none" stroke="#000000" stroke-width="14" stroke-miterlimit="10" points="-225,1656 -351,1656 -351,1782 
			-225,1782 -288,1719 		"/>
		
			<line fill="none" stroke="#000000" stroke-width="16" stroke-linecap="square" stroke-miterlimit="10" x1="-162" y1="1656" x2="-36" y2="1782"/>
	</g>
	<g display="inline">
		<circle fill="#010202" cx="-558" cy="1656" r="18"/>
		<circle fill="#010202" cx="-432" cy="1782" r="18"/>
		<circle fill="#010202" cx="-351" cy="1656" r="18"/>
		<circle fill="#010202" cx="-225" cy="1656" r="18"/>
		<circle fill="#010202" cx="-288" cy="1719" r="18"/>
		<circle fill="#010202" cx="-225" cy="1782" r="18"/>
		<circle fill="#010202" cx="-351" cy="1782" r="18"/>
		<circle fill="#010202" cx="-162" cy="1656" r="18"/>
		<circle fill="#010202" cx="-36" cy="1782" r="18"/>
	</g>
</g>
<g id="Layer_14" display="none">
	<circle display="inline" fill="#010202" cx="864" cy="216" r="162"/>
</g>
<g id="Layer_15" display="none">
	<g display="inline">
		<line fill="none" stroke="#FEFCE8" stroke-width="40" stroke-miterlimit="10" x1="603" y1="0" x2="603" y2="486"/>
		<line fill="none" stroke="#FEFCE8" stroke-width="38.1429" stroke-miterlimit="10" x1="628.285" y1="0" x2="628.285" y2="486"/>
		<line fill="none" stroke="#FEFCE8" stroke-width="36.2857" stroke-miterlimit="10" x1="653.571" y1="0" x2="653.571" y2="486"/>
		<line fill="none" stroke="#FEFCE8" stroke-width="34.4286" stroke-miterlimit="10" x1="678.857" y1="0" x2="678.857" y2="486"/>
		<line fill="none" stroke="#FEFCE8" stroke-width="32.5714" stroke-miterlimit="10" x1="704.143" y1="0" x2="704.143" y2="486"/>
		<line fill="none" stroke="#FEFCE8" stroke-width="30.7143" stroke-miterlimit="10" x1="729.429" y1="0" x2="729.429" y2="486"/>
		<line fill="none" stroke="#FEFCE8" stroke-width="28.8571" stroke-miterlimit="10" x1="754.715" y1="0" x2="754.715" y2="486"/>
		<line fill="none" stroke="#FEFCE8" stroke-width="27" stroke-miterlimit="10" x1="780" y1="0" x2="780" y2="486"/>
		<line fill="none" stroke="#FEFCE8" stroke-width="25.1429" stroke-miterlimit="10" x1="805.286" y1="0" x2="805.286" y2="486"/>
		<line fill="none" stroke="#FEFCE8" stroke-width="23.2857" stroke-miterlimit="10" x1="830.571" y1="0" x2="830.571" y2="486"/>
		<line fill="none" stroke="#FEFCE8" stroke-width="21.4286" stroke-miterlimit="10" x1="855.857" y1="0" x2="855.857" y2="486"/>
		<line fill="none" stroke="#FEFCE8" stroke-width="19.5714" stroke-miterlimit="10" x1="881.143" y1="0" x2="881.143" y2="486"/>
		<line fill="none" stroke="#FEFCE8" stroke-width="17.7143" stroke-miterlimit="10" x1="906.429" y1="0" x2="906.429" y2="486"/>
		<line fill="none" stroke="#FEFCE8" stroke-width="15.8571" stroke-miterlimit="10" x1="931.715" y1="0" x2="931.715" y2="486"/>
		<line fill="none" stroke="#FEFCE8" stroke-width="14" stroke-miterlimit="10" x1="957" y1="0" x2="957" y2="486"/>
		<line fill="none" stroke="#FEFCE8" stroke-width="12.1429" stroke-miterlimit="10" x1="982.285" y1="0" x2="982.285" y2="486"/>
		<line fill="none" stroke="#FEFCE8" stroke-width="10.2857" stroke-miterlimit="10" x1="1007.571" y1="0" x2="1007.571" y2="486"/>
		<line fill="none" stroke="#FEFCE8" stroke-width="8.4286" stroke-miterlimit="10" x1="1032.857" y1="0" x2="1032.857" y2="486"/>
		<line fill="none" stroke="#FEFCE8" stroke-width="6.5714" stroke-miterlimit="10" x1="1058.143" y1="0" x2="1058.143" y2="486"/>
		<line fill="none" stroke="#FEFCE8" stroke-width="4.7143" stroke-miterlimit="10" x1="1083.429" y1="0" x2="1083.429" y2="486"/>
		<line fill="none" stroke="#FEFCE8" stroke-width="2.8571" stroke-miterlimit="10" x1="1108.714" y1="0" x2="1108.714" y2="486"/>
		<line fill="none" stroke="#FEFCE8" stroke-miterlimit="10" x1="1134" y1="0" x2="1134" y2="486"/>
	</g>
</g>
<g id="Layer_16" display="none">
	<g display="inline">
		<path fill="#010202" d="M-198.438,2231.576v154.85c0.191,0.1,0.384,0.196,0.576,0.293v-155.436
			C-198.054,2231.381-198.246,2231.478-198.438,2231.576z"/>
		<path fill="#010202" d="M-245.653,2309.001c0,10.762,1.958,21.065,5.528,30.579v-61.158
			C-243.695,2287.937-245.653,2298.239-245.653,2309.001z"/>
		<path fill="#010202" d="M-237.707,2272.625v72.752c3.101,6.732,7.033,13.002,11.669,18.674v-110.1
			C-230.674,2259.624-234.606,2265.893-237.707,2272.625z"/>
		<path fill="#010202" d="M-240.125,2278.422v61.158c0.737,1.968,1.544,3.9,2.418,5.797v-72.752
			C-238.581,2274.521-239.388,2276.455-240.125,2278.422z"/>
		<path fill="#010202" d="M-224.617,2252.256v113.49c3.808,4.427,8.052,8.464,12.668,12.048v-137.586
			C-216.565,2243.793-220.81,2247.83-224.617,2252.256z"/>
		<path fill="#010202" d="M-226.038,2253.951v110.1c0.467,0.571,0.94,1.137,1.421,1.695v-113.49
			C-225.098,2252.814-225.571,2253.38-226.038,2253.951z"/>
		<path fill="#010202" d="M-211.528,2239.885v138.233c4.093,3.14,8.47,5.926,13.091,8.308v-154.85
			C-203.059,2233.959-207.436,2236.745-211.528,2239.885z"/>
		<path fill="#010202" d="M-211.949,2377.794c0.14,0.109,0.281,0.216,0.421,0.324v-138.233c-0.14,0.107-0.281,0.215-0.421,0.323
			V2377.794z"/>
		<path fill="#010202" d="M-197.861,2231.283v155.436c4.003,2.026,8.184,3.751,12.514,5.148v-165.731
			C-189.678,2227.533-193.858,2229.256-197.861,2231.283z"/>
		<path fill="#010202" d="M-183.774,2225.645v166.714c3.739,1.128,7.584,2.013,11.517,2.633v-171.979
			C-176.19,2223.631-180.035,2224.517-183.774,2225.645z"/>
		<path fill="#010202" d="M-169.687,2222.641v172.721c3.447,0.438,6.958,0.67,10.519,0.693v-174.107
			C-162.729,2221.971-166.239,2222.202-169.687,2222.641z"/>
		<path fill="#010202" d="M-155.599,2221.997v174.009c3.222-0.11,6.396-0.393,9.521-0.843V2222.84
			C-149.202,2222.39-152.377,2222.106-155.599,2221.997z"/>
		<path fill="#010202" d="M-141.51,2223.62v170.763c2.895-0.576,5.738-1.295,8.522-2.15v-166.462
			C-135.771,2224.914-138.615,2224.196-141.51,2223.62z"/>
		<path fill="#010202" d="M-127.423,2227.692v162.617c2.569-0.985,5.079-2.09,7.524-3.305v-156.008
			C-122.344,2229.782-124.854,2228.678-127.423,2227.692z"/>
		<path fill="#010202" d="M-113.335,2234.615v148.772c2.244-1.37,4.421-2.839,6.525-4.397v-139.978
			C-108.914,2237.453-111.091,2235.984-113.335,2234.615z"/>
		<path fill="#010202" d="M-99.246,2245.309v127.385c1.926-1.795,3.771-3.677,5.527-5.638v-116.109
			C-95.476,2248.986-97.32,2247.104-99.246,2245.309z"/>
		<path fill="#010202" d="M-85.159,2262.219v93.564c1.646-2.578,3.158-5.252,4.529-8.006v-77.552
			C-82,2267.471-83.512,2264.797-85.159,2262.219z"/>
	</g>
	<path display="inline" fill="#010202" d="M-127.141,1911.336c0-5.999-5.268-10.861-11.766-10.861l0,0
		c-6.499,0-11.767,4.862-11.767,10.861v122.277c0,5.999,5.268,10.861,11.767,10.861l0,0c6.498,0,11.766-4.862,11.766-10.861
		V1911.336z"/>
	<path display="inline" fill="#010202" d="M-104.24,1919.547c0-5.194-2.905-9.403-6.488-9.403l0,0c-3.584,0-6.489,4.209-6.489,9.403
		v105.856c0,5.192,2.905,9.402,6.489,9.402l0,0c3.583,0,6.488-4.21,6.488-9.402V1919.547z"/>
	<path display="inline" fill="#010202" d="M-81.751,1955.544c0-1.694-1.333-3.067-2.977-3.067l0,0c-1.645,0-2.978,1.373-2.978,3.067
		v34.528c0,1.693,1.333,3.066,2.978,3.066l0,0c1.644,0,2.977-1.373,2.977-3.066V1955.544z"/>
	<path display="inline" fill="#010202" d="M-202.251,1920.975c16.173-14.483,31-18.5,31-18.5c6.627,0,11,3.373,11,10v118
		c0,6.627-5.373,10-12,10c0,0-12.188-1.56-25.658-14.533c-8.954-8.623-24.939-28.217-24.842-50.717
		C-222.671,1956.707-219.001,1935.975-202.251,1920.975z"/>
</g>
<g id="Layer_17" display="none">
	<circle display="inline" fill="#010202" cx="-531" cy="2309.001" r="72"/>
</g>
<g id="Layer_18" display="none">
	<path display="inline" fill="none" stroke="#010202" stroke-width="6" stroke-miterlimit="10" d="M-390.5,2316.119
		c0,0-27.167-64.452-141-62.882c-126.155,1.74-144,62.882-144,62.882s66.128,64.882,144,64.882S-390.5,2316.119-390.5,2316.119z"/>
</g>
<g id="Layer_20" display="none">
	<path display="inline" fill="none" stroke="#010202" stroke-width="6" stroke-miterlimit="10" d="M-376.332,2309.334
		c0,0-26.001-84.334-157.667-80.333c-136.271,4.141-164.667,85.333-164.667,85.333s77.59,75.333,164.667,75.333
		S-376.332,2309.334-376.332,2309.334z"/>
</g>
<g id="Layer_19" display="none">
	<circle display="inline" fill="#FFFFFF" cx="-511.666" cy="2274" r="22.333"/>
</g>
<g id="Layer_21" display="none">
	<g id="XMLID_2_" display="inline">
		<g>
			<path fill="#010202" d="M-952.612,2230.171c83.672-2.542,100.194,51.047,100.194,51.047s-35.256,34.633-81.816,42.487
				c6.615-2.548,12.493-6.596,17.208-11.73c32.625-8.649,55.603-26.442,55.603-26.442s-11.889-28.215-57.3-37.238
				c-8.242-8.07-19.528-13.039-31.983-13.039c-12.494,0-23.824,5.014-32.079,13.135c-51.568,9.125-59.747,37.143-59.747,37.143
				s24.656,18.226,58.438,26.754c5.325,5.688,12.093,10.015,19.719,12.397c-50.367-5.039-92.874-40.288-92.874-40.288
				S-1039.207,2232.802-952.612,2230.171z"/>
			<path fill="#010202" d="M-904.952,2281.008c0,11.947-4.575,22.82-12.074,30.967c-10.485,2.783-21.962,4.619-33.998,4.619
				c-11.578,0-22.75-1.702-33.07-4.308c-7.67-8.186-12.366-19.186-12.366-31.278c0-12.772,5.236-24.319,13.675-32.618
				c9.151-1.62,19.674-2.65,31.761-2.815c2.491-0.031,4.912-0.019,7.276,0.038c-5.198,2.11-8.865,7.206-8.865,13.154
				c0,7.835,6.355,14.19,14.196,14.19c7.835,0,14.19-6.355,14.19-14.19c0-5.318-2.923-9.951-7.251-12.372
				c4.518,0.464,8.763,1.105,12.754,1.899C-910.227,2256.6-904.952,2268.19-904.952,2281.008z"/>
			<path fill="#010202" d="M-917.026,2311.975c-4.715,5.135-10.593,9.183-17.208,11.73c-5.955,1.011-12.099,1.576-18.378,1.576
				c-3.959,0-7.886-0.21-11.762-0.598c-7.625-2.383-14.394-6.71-19.719-12.397c10.32,2.605,21.492,4.308,33.07,4.308
				C-938.988,2316.594-927.511,2314.758-917.026,2311.975z"/>
			<path fill="#010202" d="M-918.723,2248.294c-3.991-0.794-8.236-1.436-12.754-1.899c-2.053-1.163-4.417-1.817-6.939-1.817
				c-1.887,0-3.686,0.368-5.332,1.035c-2.364-0.057-4.785-0.069-7.276-0.038c-12.086,0.165-22.61,1.195-31.761,2.815
				c8.255-8.121,19.585-13.135,32.079-13.135C-938.25,2235.255-926.965,2240.224-918.723,2248.294z"/>
			<path fill="#010202" d="M-938.416,2244.577c2.523,0,4.887,0.654,6.939,1.817c-3.883-0.4-7.975-0.668-12.271-0.782
				C-942.102,2244.945-940.303,2244.577-938.416,2244.577z"/>
			<path fill="#010202" d="M-934.234,2323.705c-5.109,1.977-10.663,3.057-16.471,3.057c-4.76,0-9.354-0.725-13.669-2.078
				c3.876,0.388,7.803,0.598,11.762,0.598C-946.333,2325.281-940.189,2324.716-934.234,2323.705z"/>
		</g>
		<g>
		</g>
	</g>
	<g id="XMLID_1_" display="inline">
		<g>
			<path fill="#010202" d="M-364.619,1955.063c0,0.344-0.006,0.68-0.013,1.023l-91.431,1.417c-0.044-0.807-0.063-1.62-0.063-2.44
				c0-12.772,5.236-24.319,13.675-32.618c9.151-1.62,19.674-2.65,31.761-2.815c2.491-0.031,4.912-0.019,7.276,0.038
				c-5.198,2.11-8.865,7.206-8.865,13.154c0,7.835,6.355,14.19,14.196,14.19c7.835,0,14.19-6.355,14.19-14.19
				c0-5.318-2.923-9.951-7.25-12.372c4.518,0.464,8.763,1.105,12.754,1.899C-369.894,1930.654-364.619,1942.245-364.619,1955.063z"
				/>
			<path fill="#010202" d="M-378.39,1922.349c-3.991-0.794-8.236-1.436-12.754-1.899c-2.053-1.163-4.417-1.817-6.939-1.817
				c-1.887,0-3.686,0.368-5.332,1.035c-2.364-0.057-4.785-0.069-7.276-0.038c-12.086,0.165-22.61,1.195-31.761,2.815
				c8.255-8.121,19.585-13.135,32.079-13.135C-397.917,1909.31-386.632,1914.278-378.39,1922.349z"/>
			<path fill="#010202" d="M-456.063,1957.503l91.431-1.417c-0.254,11.54-4.779,22.031-12.061,29.943
				c-10.485,2.783-21.962,4.619-33.998,4.619c-11.578,0-22.75-1.703-33.07-4.308
				C-450.909,1978.715-455.478,1968.637-456.063,1957.503z"/>
			<path fill="#010202" d="M-312.085,1955.272l-11.305,0.178c-5.236-8.179-20.373-26.219-55-33.102
				c-8.242-8.07-19.528-13.039-31.983-13.039c-12.494,0-23.824,5.014-32.079,13.135c-44.724,7.911-56.811,30.038-59.232,35.771
				l-15.232,0.235c0,0,18.041-51.594,104.636-54.225C-328.607,1901.684-312.085,1955.272-312.085,1955.272z"/>
			<path fill="#010202" d="M-376.693,1986.029c-8.363,9.093-20.354,14.787-33.68,14.787c-13.173,0-25.044-5.566-33.388-14.476
				c10.32,2.604,21.492,4.308,33.07,4.308C-398.655,1990.648-387.178,1988.813-376.693,1986.029z"/>
			<path fill="#010202" d="M-398.083,1918.632c2.523,0,4.887,0.654,6.939,1.817c-3.883-0.4-7.975-0.668-12.271-0.782
				C-401.769,1919-399.97,1918.632-398.083,1918.632z"/>
		</g>
		<g>
		</g>
	</g>
</g>
<g id="Layer_24" display="none">
	<rect x="932.03" y="1661.006" display="inline" fill="#FFFFFF" width="1217.939" height="907.454"/>
</g>
<g id="Layer_22">
	<path display="none" fill="#989899" d="M1357.084,1874.581c0-6.628-5.373-12-12-12h-216.168c-6.627,0-12,5.372-12,12v216.168
		c0,6.628,5.373,12,12,12h216.168c6.627,0,12-5.372,12-12V1874.581z"/>
	<path display="none" fill="#989899" d="M1639.39,1874.581c0-6.628-5.373-12-12-12h-216.168c-6.627,0-12,5.372-12,12v216.168
		c0,6.628,5.373,12,12,12h216.168c6.627,0,12-5.372,12-12V1874.581z"/>
	<path display="none" fill="#989899" d="M1922.439,1874.581c0-6.628-5.373-12-12-12h-216.168c-6.627,0-12,5.372-12,12v216.168
		c0,6.628,5.373,12,12,12h216.168c6.627,0,12-5.372,12-12V1874.581z"/>
	<circle display="none" fill="#989899" cx="1380.627" cy="2274.14" r="124.195"/>
	<circle display="none" fill="#989899" cx="1662.5" cy="2275.14" r="124.195"/>
	<g>
		<path d="M14.391,14.393H1.608V1.609h12.782V14.393z M2.887,13.113h10.227V2.887H2.887V13.113z"/>
	</g>
	<polygon display="none" fill="none" stroke="#000000" stroke-width="14" stroke-miterlimit="10" points="1586,1919.665 
		1460,1919.665 1460,2045.665 1586,2045.665 1523,1982.665 	"/>
	
		<line display="none" fill="none" stroke="#000000" stroke-width="16" stroke-linecap="square" stroke-miterlimit="10" x1="1739.355" y1="1919.665" x2="1865.355" y2="2045.665"/>
	<g>
		<circle fill="#010202" cx="2.248" cy="2.248" r="1.644"/>
	</g>
	<g>
		<circle fill="#010202" cx="13.752" cy="13.752" r="1.644"/>
	</g>
	<circle display="none" fill="#010202" cx="1460" cy="1919.665" r="18"/>
	<circle display="none" fill="#010202" cx="1586" cy="1919.665" r="18"/>
	<circle display="none" fill="#010202" cx="1523" cy="1982.665" r="18"/>
	<circle display="none" fill="#010202" cx="1586" cy="2045.665" r="18"/>
	<circle display="none" fill="#010202" cx="1460" cy="2045.665" r="18"/>
	<circle display="none" fill="#010202" cx="1739.355" cy="1919.665" r="18"/>
	<circle display="none" fill="#010202" cx="1865.355" cy="2045.665" r="18"/>
	<path display="none" fill="#010202" d="M1684.859,2215.001c0-5.999-5.268-10.861-11.766-10.861l0,0
		c-6.499,0-11.768,4.862-11.768,10.861v122.277c0,5.999,5.269,10.861,11.768,10.861l0,0c6.498,0,11.766-4.862,11.766-10.861
		V2215.001z"/>
	<path display="none" fill="#010202" d="M1707.76,2223.212c0-5.194-2.904-9.403-6.488-9.403l0,0c-3.584,0-6.488,4.209-6.488,9.403
		v105.856c0,5.192,2.904,9.402,6.488,9.402l0,0c3.584,0,6.488-4.21,6.488-9.402V2223.212z"/>
	<path display="none" fill="#010202" d="M1730.248,2259.209c0-1.694-1.332-3.067-2.977-3.067l0,0c-1.645,0-2.978,1.373-2.978,3.067
		v34.528c0,1.693,1.333,3.066,2.978,3.066l0,0c1.645,0,2.977-1.373,2.977-3.066V2259.209z"/>
	<path display="none" fill="#010202" d="M1609.748,2224.64c16.174-14.483,31-18.5,31-18.5c6.628,0,11,3.373,11,10v118
		c0,6.627-5.372,10-12,10c0,0-12.188-1.56-25.658-14.533c-8.953-8.623-24.938-28.217-24.842-50.717
		C1589.328,2260.372,1592.998,2239.64,1609.748,2224.64z"/>
	<g id="XMLID_3_" display="none">
		<g display="inline">
			<path fill="#010202" d="M1480.916,2270.938l-11.305,0.178c-5.236-8.179-20.373-26.22-54.999-33.102
				c-8.242-8.07-19.528-13.04-31.983-13.04c-12.493,0-23.824,5.015-32.078,13.136c-44.725,7.911-56.812,30.038-59.232,35.771
				l-15.231,0.234c0,0,18.04-51.593,104.636-54.224C1464.395,2217.35,1480.916,2270.938,1480.916,2270.938z"/>
			<path fill="#010202" d="M1428.383,2270.729c0,0.344-0.007,0.68-0.013,1.023l-91.432,1.417c-0.044-0.807-0.063-1.62-0.063-2.44
				c0-12.772,5.236-24.319,13.676-32.618c9.15-1.621,19.674-2.65,31.761-2.815c2.49-0.031,4.912-0.019,7.275,0.038
				c-5.198,2.11-8.864,7.206-8.864,13.154c0,7.835,6.354,14.19,14.196,14.19c7.835,0,14.189-6.355,14.189-14.19
				c0-5.318-2.923-9.951-7.25-12.372c4.518,0.464,8.763,1.105,12.754,1.899C1423.108,2246.32,1428.383,2257.911,1428.383,2270.729z"
				/>
			<path fill="#010202" d="M1336.938,2273.169l91.432-1.417c-0.255,11.54-4.779,22.031-12.062,29.943
				c-10.485,2.783-21.962,4.619-33.997,4.619c-11.579,0-22.75-1.703-33.07-4.308
				C1342.093,2294.381,1337.523,2284.303,1336.938,2273.169z"/>
			<path fill="#010202" d="M1416.309,2301.695c-8.362,9.093-20.354,14.787-33.68,14.787c-13.173,0-25.044-5.566-33.388-14.476
				c10.32,2.604,21.491,4.308,33.07,4.308C1394.347,2306.314,1405.823,2304.479,1416.309,2301.695z"/>
			<path fill="#010202" d="M1414.612,2238.015c-3.991-0.794-8.236-1.436-12.754-1.899c-2.053-1.163-4.417-1.818-6.939-1.818
				c-1.888,0-3.686,0.369-5.332,1.036c-2.363-0.057-4.785-0.069-7.275-0.038c-12.087,0.165-22.61,1.194-31.761,2.815
				c8.254-8.121,19.585-13.136,32.078-13.136C1395.084,2224.975,1406.37,2229.944,1414.612,2238.015z"/>
			<path fill="#010202" d="M1394.919,2234.297c2.522,0,4.887,0.655,6.939,1.818c-3.883-0.4-7.976-0.668-12.271-0.782
				C1391.233,2234.666,1393.031,2234.297,1394.919,2234.297z"/>
		</g>
		<g display="inline">
		</g>
	</g>
</g>
</svg>
